<svg width="24" height="24" viewBox="0 0 16 16" fill="none"  xmlns="http://www.w3.org/2000/svg">
    <style>
        /* Apply hover effect */
        svg:hover path {
          stroke: #FF0000; /* Red stroke color */
          stroke-width: 1.5; /* Increase stroke width by 0.2 pixels */          
        }     
         
      </style>
<path d="M11.7697 14.4616H4.23122C3.9456 14.4616 3.67168 14.3482 3.46972 14.1462C3.26776 13.9442 3.1543 13.6703 3.1543 13.3847V3.69238H12.8466V13.3847C12.8466 13.6703 12.7331 13.9442 12.5312 14.1462C12.3292 14.3482 12.0553 14.4616 11.7697 14.4616Z" stroke="#FF0000" stroke-width="1.3" stroke-linecap="round" stroke-linejoin="round"/>
<path d="M6.38477 11.2305V6.92285" stroke="#FF0000" stroke-width="1.3" stroke-linecap="round" stroke-linejoin="round"/>
<path d="M9.61621 11.2305V6.92285" stroke="#FF0000" stroke-width="1.3" stroke-linecap="round" stroke-linejoin="round"/>
<path d="M1 3.69238H15" stroke="#FF0000" stroke-width="1.3" stroke-linecap="round" stroke-linejoin="round"/>
<path d="M9.61531 1.53809H6.38454C6.09892 1.53809 5.825 1.65155 5.62304 1.85351C5.42108 2.05547 5.30762 2.32939 5.30762 2.61501V3.69193H10.6922V2.61501C10.6922 2.32939 10.5788 2.05547 10.3768 1.85351C10.1748 1.65155 9.90093 1.53809 9.61531 1.53809Z" stroke="#FF0000" stroke-width="1.3" stroke-linecap="round" stroke-linejoin="round"/>
</svg>
