<svg version="1.0" xmlns="http://www.w3.org/2000/svg"
    width="25" height="25" viewBox="0 0 512.000000 512.000000"
    preserveAspectRatio="xMidYMid meet">

    <g transform="translate(0.000000,512.000000) scale(0.100000,-0.100000)"
        fill="#64748B" stroke="none">
        <path
            d="M2490 4601 c-71 -38 -74 -50 -80 -269 l-5 -197 -480 -5 c-304 -3
-486 -9 -497 -15 -16 -9 43 -92 459 -648 l477 -637 182 0 182 0 4 116 c4 166
-22 154 349 154 l298 0 28 -24 c27 -23 28 -28 31 -135 l4 -111 181 2 182 3
446 645 447 645 -467 5 -466 5 -5 195 c-6 219 -10 234 -81 271 -36 18 -63 19
-596 19 -524 0 -560 -1 -593 -19z m1120 -301 l0 -160 -525 0 -525 0 0 160 0
160 525 0 525 0 0 -160z m-859 -709 c28 -35 25 -85 -7 -110 -23 -18 -41 -21
-125 -21 -88 0 -101 2 -125 23 -38 33 -37 81 1 114 27 23 34 25 132 21 96 -3
106 -5 124 -27z m443 18 c55 -26 55 -112 0 -138 -34 -15 -193 -14 -224 2 -50
25 -52 104 -2 131 33 18 189 21 226 5z m485 -13 c32 -29 29 -88 -5 -115 -23
-18 -41 -21 -125 -21 -88 0 -101 2 -125 23 -45 39 -34 105 21 128 11 5 63 8
116 6 79 -2 101 -6 118 -21z" />
        <path
            d="M4365 3371 c-277 -401 -479 -684 -493 -690 -14 -7 -104 -11 -227 -11
l-203 0 -4 -116 c-4 -166 24 -154 -358 -154 l-309 0 -20 26 c-18 23 -21 41
-21 135 l0 109 -211 0 c-116 0 -218 4 -227 9 -9 5 -235 302 -502 660 -267 358
-488 651 -491 651 -3 0 -12 -12 -20 -27 -12 -23 -14 -155 -17 -767 l-3 -739
38 6 c121 19 304 29 418 24 193 -9 330 -49 564 -166 55 -28 136 -63 178 -78
77 -26 83 -27 358 -29 225 -1 292 -5 339 -18 149 -42 274 -144 341 -278 21
-43 41 -78 44 -78 3 0 161 65 351 145 191 79 375 152 411 162 88 24 270 23
364 -1 39 -10 104 -34 145 -55 41 -20 78 -37 83 -39 4 -2 7 421 7 940 0 900
-1 945 -19 983 -43 92 1 143 -516 -604z" />
        <path d="M2890 2745 l0 -195 195 0 195 0 0 195 0 195 -195 0 -195 0 0 -195z" />
        <path
            d="M150 2548 c-18 -13 -41 -39 -52 -58 -17 -34 -18 -74 -16 -962 3 -918
3 -927 24 -954 11 -15 33 -37 48 -48 26 -20 42 -21 334 -24 303 -2 308 -2 346
20 21 13 47 39 57 58 18 33 19 78 19 960 0 905 0 926 -20 958 -11 18 -34 41
-52 52 -31 19 -51 20 -344 20 -306 0 -312 0 -344 -22z m461 -1537 c20 -16 24
-30 27 -92 3 -64 1 -78 -18 -101 -17 -22 -30 -28 -60 -28 -30 0 -43 6 -60 28
-19 23 -21 37 -18 101 3 62 7 76 27 92 13 10 36 19 51 19 15 0 38 -9 51 -19z" />
        <path
            d="M1405 2320 c-39 -4 -130 -15 -203 -25 l-132 -18 2 -741 3 -741 74
-37 c262 -131 829 -218 1229 -188 456 34 813 143 1697 520 334 142 527 220
697 280 128 45 195 86 234 142 38 55 41 141 6 208 -102 196 -417 329 -657 277
-40 -9 -255 -93 -505 -197 -239 -100 -439 -184 -445 -186 -6 -3 -10 26 -11 73
-3 159 -90 284 -242 347 -42 18 -82 20 -357 26 -363 8 -348 4 -602 129 -90 44
-200 92 -245 107 -77 25 -97 28 -278 30 -107 1 -227 -1 -265 -6z" />
    </g>
</svg>