<svg width="25" height="25" viewBox="0 0 683 646" fill="none" xmlns="http://www.w3.org/2000/svg">
    <path
        d="M260 2.00031C258.933 2.66699 257.733 6.13364 257.333 10.267L256.667 17.3336L236 18.0003L215.333 18.667L214.933 22.9336C214.267 29.7336 218.4 49.6003 222.8 60.667C234.267 89.2003 254.667 111.067 282.933 124.667C293.867 129.867 297.867 132.8 309.867 144.267L324 157.867L319.467 170.534C314.4 184.8 307.2 198.534 301.067 205.467C297.067 210 297.067 210 285.467 210C278.267 210 273.2 210.667 272.267 211.6C270 213.867 270 268.8 272.267 271.067C273.467 272.267 290.667 272.667 341.6 272.667C407.067 272.667 409.333 272.534 410.667 270.134C412.4 266.667 412.4 216 410.667 212.534C409.467 210.267 407.733 210 397.333 210H385.467L380.933 204.267C374.4 196.267 367.6 183.334 362.8 169.6L358.667 157.734L372.8 144.267C384.8 132.8 388.8 129.867 399.733 124.667C428 111.067 448.4 89.2003 459.867 60.667C464.267 49.6003 468.4 29.7336 467.733 22.9336L467.333 18.667L446.667 18.0003L426 17.3336L425.333 10.267C424.933 6.13364 423.733 2.66699 422.667 2.00031C421.467 1.20032 387.867 0.666992 341.333 0.666992C294.8 0.666992 261.2 1.20032 260 2.00031Z"
        fill="#64748B" />
    <path
        d="M109.867 97.1999C82.6671 103.867 67.6005 127.2 69.8671 159.333C71.4671 184 79.4671 203.867 93.0671 217.867C97.6005 222.533 101.2 226.533 101.067 226.667C100.8 226.8 86.0005 230.667 68.0005 235.2C49.7338 239.867 31.7338 245.2 27.2005 247.467C17.2005 252.267 10.4005 259.467 4.80046 271.2L0.66713 280L0.26713 318.4C-0.13287 346.933 0.133796 357.333 1.3338 358.8C3.7338 361.6 240.134 361.6 242.534 358.8C243.734 357.333 244 346.4 243.734 317.733L243.334 278.533L238.934 269.733C233.867 259.333 223.334 248.933 214.534 245.6C208 243.2 147.467 227.333 144.534 227.333C143.467 227.333 142.667 227.067 142.667 226.8C142.667 226.4 146.267 222.8 150.534 218.667C159.6 210 166.4 198 170.667 183.333C174.4 170.533 175.734 146.533 173.334 136.533C168.267 115.2 153.334 100.667 132 96.6666C123.2 95.0666 118.534 95.0666 109.867 97.1999Z"
        fill="#64748B" />
    <path
        d="M548.667 97.1999C527.867 102.267 514.133 115.867 509.333 136.533C506.933 146.533 508.267 170.533 512 183.333C516.267 198 523.067 210 532.133 218.667C536.533 222.933 540 226.4 539.733 226.533C539.467 226.8 524.4 230.667 506 235.333C487.733 239.867 469.733 245.2 466 246.933C456.667 251.467 447.6 260.933 443.067 270.533L439.333 278.667L438.933 317.733C438.667 346.4 438.933 357.333 440.133 358.8C442.533 361.6 678.933 361.6 681.333 358.8C682.533 357.333 682.8 346.933 682.4 318.4L682 280L677.867 271.2C672.267 259.467 665.467 252.267 655.467 247.467C650.933 245.2 633.067 239.867 614.667 235.2C596.667 230.667 581.867 226.8 581.6 226.667C581.467 226.533 585.067 222.533 589.6 217.867C603.2 203.867 611.2 184 612.8 159.333C615.2 125.867 598.8 102.267 569.333 96.6666C560.667 95.0666 557.2 95.0666 548.667 97.1999Z"
        fill="#64748B" />
    <path
        d="M39.7338 397.6C29.8672 418.267 29.4672 421.333 36.1338 421.333C38.8005 421.333 40.4005 419.333 45.6005 409.333C50.6672 399.6 52.0005 397.867 52.8005 400C71.2005 450.533 94.4005 487.2 129.467 521.6C144.934 536.667 154.4 544.4 170.667 555.6C193.467 571.067 199.201 573.6 202.534 569.467C204.934 566.667 202.934 563.6 196.134 559.733C146.134 530.933 103.867 485.867 78.6672 434.667C71.0672 419.333 60.9338 394 61.8672 392.933C62.1338 392.667 67.8672 395.2 74.5338 398.533C81.2005 401.867 87.2005 404.667 87.8672 404.667C90.2672 404.667 93.0672 400.667 92.4005 398.267C91.7338 395.333 57.6005 378 52.5338 378C49.4672 378 48.2672 379.867 39.7338 397.6Z"
        fill="#64748B" />
    <path
        d="M625.6 380.267C624.934 381.6 622.4 388.667 620 396C599.6 457.734 559.734 510.534 505.734 547.467C499.334 551.734 494 555.067 493.6 554.8C493.334 554.534 494.667 548.4 496.667 541.334C500.267 527.867 500 524.667 494.667 524.667C490.934 524.667 489.867 526.934 484.134 548C478.8 567.467 478.667 568 481.2 570.134C484.4 572.8 520.534 582.667 523.334 581.6C526.8 580.134 527.334 576.4 524.4 574C522.934 572.8 516.534 570.4 510.134 568.8C503.867 567.067 498.667 565.467 498.667 565.2C498.667 564.934 504 561.067 510.667 556.667C552.134 528.8 588.534 487.867 611.2 443.467C623.467 419.334 636 384.8 634.267 380C633.067 377.2 627.067 377.467 625.6 380.267Z"
        fill="#64748B" />
    <path
        d="M325.334 383.067C298.934 391.867 285.867 414.933 289.334 447.333C291.867 472.4 298.534 488.533 312.134 502.267L321.067 511.333L316.134 512.533C313.467 513.333 297.201 517.467 280.001 521.867C253.067 528.933 247.601 530.667 241.334 535.067C232.534 541.067 226.534 548.667 222.534 558.933C219.601 566.4 219.467 568.267 219.334 605.067C219.334 637.733 219.601 643.6 221.334 644.667C224.001 646.4 458.667 646.4 461.334 644.667C463.067 643.6 463.334 637.733 463.334 605.067C463.201 568.267 463.067 566.4 460.134 558.933C456.134 548.667 450.134 541.067 441.334 535.067C435.067 530.667 429.601 528.933 402.667 521.867C385.467 517.467 369.201 513.333 366.534 512.533L361.601 511.333L370.534 502.267C384.001 488.667 390.534 472.933 393.467 447.867C396.801 418 384.401 393.333 361.601 384.533C351.067 380.533 335.067 379.867 325.334 383.067Z"
        fill="#64748B" />
</svg>