<svg width="25px" height="25px" viewBox="0 0 24 24" fill="none" xmlns="http://www.w3.org/2000/svg">
    <path
        d="M6.23438 0.768721C5.69063 0.923409 5.24531 1.29841 5.00156 1.81872C4.86563 2.10466 4.85156 2.17028 4.85156 2.60153C4.85156 3.03278 4.86563 3.09841 5.00156 3.38435C5.56406 4.57028 7.11094 4.86091 8.03438 3.95622C8.71875 3.28122 8.80781 2.30622 8.26406 1.50935C7.8375 0.885908 6.96094 0.567158 6.23438 0.768721Z"
        fill="#64748B"/>
    <path
        d="M16.9312 0.773427C16.5797 0.871865 16.4203 0.965615 16.1344 1.23749C15.6703 1.67343 15.4547 2.29218 15.5578 2.88749C15.7406 3.9328 16.7062 4.63593 17.7234 4.46249C18.3609 4.35468 18.8297 4.0078 19.1109 3.44061C19.7156 2.21249 18.8953 0.792177 17.5406 0.721865C17.3109 0.707802 17.0906 0.726552 16.9312 0.773427Z"
        fill="#64748B"/>
    <path
        d="M11.5781 2.22626C10.5047 2.53095 9.90934 3.68876 10.3031 4.7247C10.6031 5.50751 11.4 6.00907 12.239 5.93876C13.4203 5.84032 14.2265 4.65907 13.8843 3.52938C13.7062 2.94813 13.2562 2.46532 12.7031 2.27313C12.3937 2.16063 11.8875 2.14188 11.5781 2.22626Z"
        fill="#64748B"/>
    <path
        d="M5.99995 5.03906C4.77183 5.28281 3.71714 6.15937 3.2437 7.32187C3.18277 7.48594 3.11714 7.70625 3.10308 7.81406C3.08433 7.9875 3.09839 8.02969 3.22495 8.15625L3.36558 8.29688H5.6812H7.99683L8.10464 8.07187C8.34839 7.57031 8.88277 6.94687 9.41714 6.54375L9.67027 6.35625L9.3187 6.02344C8.39995 5.16094 7.18589 4.8 5.99995 5.03906Z"
        fill="#64748B"/>
    <path
        d="M16.875 5.00156C16.3031 5.09531 15.6375 5.37656 15.2062 5.69531C14.9016 5.925 14.5312 6.28594 14.5312 6.35625C14.5312 6.38437 14.5875 6.45 14.6625 6.49219C15.1266 6.79688 15.6937 7.425 16.0078 7.99219L16.1812 8.29688H18.4781H20.775L20.9156 8.15625C21.0469 8.025 21.0562 7.99219 21.0375 7.77656C21.0187 7.61719 20.9297 7.37344 20.7703 7.05469C20.1281 5.76094 18.8062 4.95 17.3766 4.97344C17.1656 4.97812 16.9406 4.99219 16.875 5.00156Z"
        fill="#64748B"/>
    <path
        d="M11.4141 6.4875C10.05 6.75469 8.94843 7.69687 8.53125 8.94844C8.40937 9.30937 8.43281 9.51562 8.61093 9.65625C8.72812 9.75 8.77968 9.75 12.0797 9.75H15.4312L15.5672 9.61406C15.7453 9.43594 15.7406 9.28594 15.5625 8.81719C15.1406 7.725 14.2125 6.88594 13.0687 6.5625C12.6234 6.43594 11.8547 6.40312 11.4141 6.4875Z"
        fill="#64748B"/>
    <path
        d="M4.80935 10.0873C4.77185 10.1482 4.12029 11.6107 3.35154 13.3451C2.2406 15.8717 1.97341 16.5138 2.01091 16.5842C2.07654 16.706 3.35154 17.2638 3.48748 17.231C3.57654 17.2076 3.82029 16.6873 5.01091 14.006C5.78904 12.2435 6.42185 10.7717 6.42185 10.7295C6.42185 10.6873 6.39373 10.6263 6.35623 10.5982C6.2531 10.5092 5.0531 9.98416 4.95935 9.98416C4.91248 9.98416 4.84685 10.031 4.80935 10.0873ZM5.6156 10.7998C5.9531 11.1279 5.48904 11.681 5.11873 11.4045C4.84685 11.2029 4.8656 10.8654 5.15623 10.7248C5.33904 10.631 5.46091 10.6498 5.6156 10.7998Z"
        fill="#64748B"/>
    <path
        d="M18.6046 10.6594C17.8359 10.9594 17.8593 10.9453 17.8593 11.0859C17.8593 11.2078 20.2546 17.4375 20.3718 17.6109C20.4093 17.6719 20.489 17.7188 20.5453 17.7188C20.6015 17.7188 20.925 17.6156 21.2578 17.4844C21.8671 17.25 22.064 17.1187 22.0078 16.9734C20.8546 13.9687 19.514 10.5516 19.4625 10.4859C19.425 10.4437 19.3593 10.4062 19.3171 10.4062C19.275 10.4109 18.9562 10.5234 18.6046 10.6594ZM19.1203 11.1328C19.2703 11.2078 19.3125 11.2875 19.3125 11.4984C19.3125 11.8312 18.8765 11.9906 18.6328 11.7422C18.4687 11.5828 18.4781 11.3766 18.6515 11.1984C18.8062 11.0484 18.9234 11.0297 19.1203 11.1328Z"
        fill="#64748B"/>
    <path
        d="M5.67654 14.3437C5.17966 15.4734 4.77185 16.4203 4.77185 16.4391C4.77185 16.4578 4.93591 16.5469 5.13748 16.6359C5.34373 16.7203 5.5781 16.8469 5.66716 16.9078C5.82185 17.025 6.04685 17.4281 6.04685 17.5922C6.04685 17.6391 6.06091 17.6719 6.08435 17.6625C6.1031 17.6531 6.24373 17.5875 6.39373 17.5078C7.09685 17.1609 7.92654 17.475 8.22185 18.2062L8.33435 18.4781L8.59216 18.4922C9.07498 18.5203 9.54841 18.825 9.72654 19.2188L9.80623 19.3922H10.1625C10.4344 19.3875 10.5797 19.4109 10.739 19.4859C10.9969 19.6031 11.2922 19.8797 11.4047 20.1187L11.4844 20.2875L11.8219 20.2828C12.2062 20.2781 12.5672 20.4047 12.7594 20.6109C12.9422 20.8078 14.7281 21.7969 14.9015 21.7969C15.225 21.7969 15.4687 21.5531 15.4687 21.225C15.4687 20.925 15.3469 20.8172 14.4328 20.3016C12.8531 19.4062 12.7359 19.3359 12.6422 19.2094C12.4828 18.9984 12.6609 18.6562 12.9328 18.6562C12.9937 18.6562 13.739 19.0453 14.5969 19.5281C15.5297 20.0531 16.214 20.4094 16.3172 20.4234C16.8047 20.4891 17.1281 19.8609 16.7953 19.5047C16.7203 19.4297 16.1484 19.0781 15.5156 18.7266C14.8828 18.375 14.3297 18.0422 14.2875 17.9906C14.1047 17.7797 14.2781 17.3906 14.55 17.3906C14.6109 17.3906 15.2062 17.6953 15.8672 18.0656C16.5281 18.4406 17.1281 18.7594 17.2031 18.7734C17.3906 18.8156 17.6531 18.6891 17.7656 18.5062C17.8781 18.3328 17.8687 18.0703 17.7469 17.8828C17.7047 17.8219 16.9312 17.3484 15.8953 16.7578C14.2547 15.8203 14.0953 15.7406 13.8422 15.7172C13.4953 15.6891 13.1672 15.7687 12.2578 16.125C11.0344 16.5984 10.5656 16.7016 9.93748 16.6312C9.15466 16.5422 8.06248 15.6375 8.19373 15.1875C8.25466 14.9812 8.31091 14.9297 8.87341 14.5641C9.17341 14.3672 9.56716 14.1 9.7406 13.9687C10.0547 13.7344 11.1469 12.7547 11.1515 12.6984C11.1562 12.6797 11.0578 12.6375 10.9359 12.6047C10.5703 12.5016 9.94216 12.5297 9.30466 12.6844C8.86873 12.7875 8.62966 12.8203 8.24998 12.8203H7.75779L7.18123 12.5484C6.86716 12.4031 6.60466 12.2812 6.59529 12.2812C6.5906 12.2812 6.1781 13.2094 5.67654 14.3437Z"
        fill="#64748B"/>
    <path
        d="M13.0312 12.4874C12.45 12.6515 12.0328 12.928 11.1797 13.7108C10.5094 14.3296 10.0406 14.6999 9.46874 15.0749C9.27656 15.1968 9.10781 15.3093 9.09843 15.314C9.04218 15.3515 9.33281 15.5812 9.58593 15.703C10.1625 15.989 10.6828 15.9327 11.8969 15.4593C12.9 15.0702 13.1344 14.9999 13.5703 14.9671C13.8562 14.9483 14.0156 14.9624 14.2219 15.0187C14.5031 15.103 17.8359 16.964 18.1312 17.203L18.2906 17.3296L18.7641 17.128C19.0406 17.0108 19.2422 16.903 19.2375 16.8655C19.2281 16.7812 17.6672 12.7358 17.6203 12.6843C17.6016 12.6655 17.4609 12.7124 17.3109 12.7968C16.7437 13.1155 16.7156 13.1249 16.4531 13.1249C16.1016 13.1249 15.6891 13.0218 15.0328 12.7687C14.7281 12.6562 14.3484 12.5296 14.1891 12.4921C13.8422 12.4077 13.3219 12.4077 13.0312 12.4874Z"
        fill="#64748B"/>
    <path
        d="M6.76873 18.1594C6.58123 18.2437 6.45467 18.4172 6.12185 19.0453C5.8031 19.6453 5.75623 19.7766 5.81717 19.9781C5.91092 20.3156 6.2531 20.5031 6.57185 20.3953C6.71248 20.3484 6.78279 20.2547 7.14373 19.6359C7.36873 19.2422 7.5656 18.8578 7.57967 18.7734C7.61717 18.5391 7.47654 18.2859 7.24685 18.1828C7.01717 18.0797 6.96092 18.075 6.76873 18.1594Z"
        fill="#64748B"/>
    <path
        d="M8.30156 19.3031C8.175 19.3687 8.05313 19.5469 7.64531 20.25C7.18594 21.0562 7.14844 21.1359 7.14844 21.3656C7.14844 21.5953 7.1625 21.6281 7.32188 21.7781C7.46719 21.9094 7.5375 21.9375 7.69688 21.9375C8.0625 21.9375 8.1375 21.8531 8.6625 20.8453C8.925 20.3391 9.14063 19.875 9.14063 19.8141C9.14063 19.6406 8.98125 19.3969 8.80781 19.3031C8.61094 19.1953 8.50313 19.1953 8.30156 19.3031Z"
        fill="#64748B"/>
    <path
        d="M10.0547 20.1467C9.83905 20.2217 9.76874 20.3202 9.3703 21.0983C8.88749 22.0358 8.87342 22.1295 9.16405 22.392C9.35624 22.5749 9.62342 22.5983 9.85311 22.4624C10.0453 22.3499 10.8 20.9155 10.7906 20.6811C10.7765 20.3202 10.3828 20.0342 10.0547 20.1467Z"
        fill="#64748B"/>
    <path
        d="M11.6906 21.0514C11.6109 21.0748 11.5218 21.1217 11.4937 21.1498C11.4703 21.1826 11.2734 21.5389 11.0671 21.9467C10.7484 22.5514 10.6875 22.7014 10.7156 22.8139C10.8234 23.2405 11.2781 23.428 11.625 23.1889C11.8031 23.067 12.4171 21.9655 12.4546 21.6936C12.5203 21.2576 12.1171 20.9248 11.6906 21.0514Z"
        fill="#64748B"/>
    <path
        d="M13.1906 21.9231C13.1719 21.9934 13.0734 22.2231 12.9656 22.4294C12.8625 22.6356 12.7687 22.8184 12.7594 22.8325C12.7547 22.8465 12.8625 22.9169 13.0078 22.9872C13.2047 23.0903 13.3031 23.1137 13.425 23.0903C13.7484 23.0294 13.9594 22.7387 13.9031 22.4294C13.8656 22.2278 13.7297 22.0778 13.4437 21.9137L13.2234 21.7919L13.1906 21.9231Z"
        fill="#64748B"/>
</svg>