<svg width="25px" height="25px" viewBox="0 0 24 24" fill="none" xmlns="http://www.w3.org/2000/svg">
    <g clip-path="url(#clip0_4526_1821)">
        <path opacity="0.986" fill-rule="evenodd" clip-rule="evenodd"
            d="M4.57032 1.61742C5.06504 1.53585 5.49469 1.66085 5.85938 1.99242C6.46496 3.00035 7.05872 4.01598 7.64063 5.0393C8.12602 5.86261 7.97761 6.5423 7.19532 7.07836C6.60943 7.41033 6.03132 7.75406 5.46094 8.10961C5.43371 8.15147 5.41805 8.19834 5.41407 8.25023C6.17602 10.8292 7.38699 13.1651 9.04688 15.258C9.41677 15.6862 9.80738 16.0925 10.2188 16.4768C10.9512 16.0598 11.6934 15.6614 12.4453 15.2815C13.0857 15.1561 13.5779 15.3671 13.9219 15.9143C14.5431 16.9848 15.1525 18.063 15.75 19.1487C15.9017 19.7182 15.7532 20.1948 15.3047 20.5784C14.1073 21.1693 12.9041 21.7474 11.6953 22.3127C11.3163 22.3064 10.9569 22.2127 10.6172 22.0315C9.71602 21.5733 8.88788 21.0108 8.13282 20.344C4.84327 17.1345 2.53858 13.3142 1.21875 8.88305C0.862289 7.62511 0.721664 6.34387 0.79688 5.0393C0.82628 4.72228 0.880969 4.40977 0.960942 4.1018C1.00993 4.02188 1.07243 3.95157 1.14844 3.89086C2.14844 3.20336 3.14844 2.51586 4.14844 1.82836C4.29338 1.75589 4.434 1.68558 4.57032 1.61742Z"
            fill="#64748B" />
        <path opacity="0.986" fill-rule="evenodd" clip-rule="evenodd"
            d="M8.83594 4.99219C13.2891 4.98437 17.7422 4.99219 22.1953 5.01563C19.5502 6.82637 16.9017 8.63105 14.25 10.4297C12.4339 9.21296 10.6292 7.9786 8.83594 6.72657C9.06623 6.15019 9.06623 5.57208 8.83594 4.99219Z"
            fill="#64748B" />
        <path opacity="0.987" fill-rule="evenodd" clip-rule="evenodd"
            d="M23.0391 5.69531C23.0859 5.69531 23.1328 5.69531 23.1797 5.69531C23.1875 9.32034 23.1797 12.9453 23.1562 16.5703C23.0347 16.8951 22.8081 17.106 22.4766 17.2031C20.2732 17.2422 18.0701 17.2344 15.8672 17.1797C15.426 16.375 14.9494 15.5937 14.4375 14.8359C13.6845 14.1692 12.833 14.0052 11.8828 14.3438C11.3793 14.5994 10.8871 14.8728 10.4062 15.1641C8.72934 13.265 7.47155 11.1087 6.63281 8.69531C7.16611 8.33072 7.70517 7.97137 8.25 7.61719C10.1484 8.92186 12.0469 10.2266 13.9453 11.5312C14.1258 11.6548 14.3133 11.6704 14.5078 11.5781C17.3628 9.6277 20.2066 7.66678 23.0391 5.69531Z"
            fill="#64748B" />
    </g>
    <defs>
        <clipPath id="clip0_4526_1821">
            <rect width="24" height="24" fill="white" />
        </clipPath>
    </defs>
</svg>