<svg width="24" height="26" viewBox="0 0 15 16" fill="none" xmlns="http://www.w3.org/2000/svg">
    <style>
        /* Apply hover effect */
        svg:hover path {
        stroke: #00c2f2;
        stroke-width: 1.5; /* Increase stroke width by 0.2 pixels */
        }

    </style>
    <path
        d="M13.3148 2.14713C13.1191 1.95231 12.8868 1.79818 12.6312 1.69365C12.3757 1.58912 12.1019 1.53626 11.8258 1.53813C11.5497 1.54 11.2767 1.59656 11.0226 1.70454C10.7684 1.81252 10.5382 1.96978 10.3452 2.16724L2.01666 10.4958L1 14.4619L4.96612 13.4447L13.2947 5.11612C13.4922 4.92321 13.6495 4.69305 13.7575 4.43897C13.8655 4.18488 13.9221 3.91191 13.924 3.63582C13.9258 3.35974 13.873 3.08602 13.7684 2.83049C13.6638 2.57497 13.5097 2.34271 13.3148 2.14713V2.14713Z"
        stroke="#615E83" stroke-width="1.3" stroke-linecap="round" stroke-linejoin="round" />
</svg>