<svg width="25px" height="25px" viewBox="0 0 24 24" fill="none" xmlns="http://www.w3.org/2000/svg">
    <path
        d="M11.2969 3.81563C9.96563 4.10156 8.91563 4.99688 8.47969 6.225C7.89375 7.88906 8.49844 9.675 9.975 10.6453C10.6031 11.0578 11.1844 11.2266 12 11.2266C13.0594 11.2266 13.9125 10.875 14.6438 10.1438C15.375 9.4125 15.7266 8.55938 15.7266 7.5C15.7266 6.68438 15.5578 6.10313 15.1453 5.475C14.6109 4.65938 13.8703 4.125 12.8906 3.85781C12.525 3.75938 11.6719 3.73594 11.2969 3.81563Z"
        fill="#64748B" />
    <path
        d="M3.84845 6.8203C3.33282 6.9328 2.78907 7.23749 2.39064 7.64061C0.91876 9.11718 1.34064 11.5641 3.22501 12.4547C4.12032 12.8766 5.15157 12.8344 6.00001 12.3422C6.38907 12.1125 6.86251 11.6391 7.0922 11.25C7.37814 10.7578 7.47657 10.3781 7.47657 9.74999C7.47657 9.32343 7.45314 9.14061 7.37345 8.8828C6.90001 7.39218 5.3672 6.49218 3.84845 6.8203Z"
        fill="#64748B" />
    <path
        d="M18.8484 6.8203C18.3328 6.9328 17.7891 7.23749 17.3906 7.64061C15.9188 9.11718 16.3406 11.5641 18.225 12.4547C19.1203 12.8766 20.1516 12.8344 21 12.3422C21.6188 11.9812 22.1531 11.3062 22.3734 10.6172C22.5188 10.1531 22.5188 9.34686 22.3734 8.8828C21.9 7.39218 20.3672 6.49218 18.8484 6.8203Z"
        fill="#64748B" />
    <path
        d="M8.92499 12.2625C8.10936 12.8156 7.36405 13.8281 7.03593 14.8359C6.7828 15.6047 6.7828 15.5906 6.76405 17.9859L6.7453 20.25H12H17.2547L17.2359 17.9859C17.2172 15.5906 17.2172 15.6047 16.9641 14.8359C16.6359 13.8281 15.8906 12.8156 15.075 12.2625C14.8406 12.1031 14.55 12.0984 14.2266 12.2484C13.9078 12.3984 13.4344 12.5531 13.0734 12.6281L12.7734 12.6891L12.75 14.7328C12.7266 16.7016 12.7219 16.7813 12.6281 16.9031C12.4781 17.1094 12.3094 17.2125 12.0844 17.2359C11.8125 17.2688 11.5781 17.1656 11.4094 16.9406L11.2734 16.7672L11.25 14.7234L11.2266 12.6797L11.1094 12.6656C10.8187 12.6281 10.2328 12.4547 9.8953 12.3047C9.43124 12.0984 9.1828 12.0891 8.92499 12.2625Z"
        fill="#64748B" />
    <path
        d="M2.40469 13.4016C1.84219 13.7625 1.25625 14.4844 1.03125 15.0844C0.773438 15.7641 0.773438 15.7781 0.773438 17.8406V19.7672L0.909375 19.9406C1.14375 20.25 1.13906 20.25 3.3 20.25H5.24531L5.26406 17.9391C5.27813 15.7828 5.2875 15.6047 5.38125 15.1828C5.51719 14.5875 5.69063 14.0766 5.91094 13.6219C6.00938 13.4156 6.07969 13.2375 6.07031 13.2234C6.05625 13.2094 5.94375 13.2281 5.82188 13.2609C5.7 13.2984 5.49844 13.3547 5.36719 13.3922C4.8 13.5516 3.94219 13.5141 3.3375 13.3078C2.93438 13.1672 2.73281 13.1859 2.40469 13.4016Z"
        fill="#64748B" />
    <path
        d="M17.9062 13.2377C17.9062 13.2518 17.9859 13.4252 18.0891 13.6268C18.3047 14.0627 18.4875 14.6018 18.6188 15.1971C18.7125 15.6002 18.7219 15.8111 18.7359 17.9439L18.7547 20.2549L20.7656 20.2408C22.7109 20.2268 22.7766 20.2221 22.9031 20.1283C22.9734 20.0768 23.0766 19.9736 23.1281 19.9033C23.2219 19.7768 23.2266 19.7205 23.2266 17.8455C23.2266 15.7783 23.2266 15.7643 22.9688 15.0846C22.65 14.2361 21.6422 13.2189 21.1172 13.2189C21.0094 13.2189 20.8266 13.2518 20.7141 13.2939C19.9734 13.5564 19.0266 13.5564 18.2859 13.2939C18.0891 13.2236 17.9062 13.1955 17.9062 13.2377Z"
        fill="#64748B" />
</svg>