<svg width="25px" height="25px" viewBox="0 0 24 24" fill="none" xmlns="http://www.w3.org/2000/svg">
<g clip-path="url(#clip0_4526_4430)">
<path opacity="0.983" fill-rule="evenodd" clip-rule="evenodd" d="M11.1328 0.39853C14.8403 0.210471 17.9731 1.44485 20.5312 4.10166C20.8785 4.53071 21.2145 4.96819 21.5391 5.41416C18.8829 5.46886 16.2267 5.47664 13.5703 5.43759C12.7633 4.95872 12.1305 4.31028 11.6719 3.49228C11.1273 2.54831 10.8226 1.53268 10.7578 0.445405C10.893 0.459768 11.0181 0.444143 11.1328 0.39853Z" fill="#64748B"/>
<path opacity="0.98" fill-rule="evenodd" clip-rule="evenodd" d="M9.02344 0.726562C9.08592 0.726562 9.14845 0.726562 9.21094 0.726562C9.38433 2.49801 10.0406 4.06051 11.1797 5.41406C8.25783 5.47655 5.33592 5.47655 2.41406 5.41406C4.01864 3.01334 6.22177 1.45084 9.02344 0.726562Z" fill="#64748B"/>
<path opacity="0.976" fill-rule="evenodd" clip-rule="evenodd" d="M23.9766 7.4297C23.9766 10.4766 23.9766 13.5234 23.9766 16.5703C23.8734 16.7277 23.7328 16.8449 23.5547 16.9219C15.8359 16.9532 8.1172 16.9532 0.398438 16.9219C0.220297 16.8449 0.0796716 16.7277 -0.0234375 16.5703C-0.0234375 13.5234 -0.0234375 10.4766 -0.0234375 7.4297C0.0923278 7.23043 0.264203 7.09764 0.492188 7.03126C8.14842 7 15.8047 7 23.4609 7.03126C23.6889 7.09764 23.8608 7.23043 23.9766 7.4297ZM2.08594 9.07032C2.42172 9.02851 2.69516 9.13787 2.90625 9.39845C3.47656 10.1641 4.04687 10.9297 4.61719 11.6953C4.65623 10.9927 4.67966 10.2896 4.6875 9.58595C4.94231 9.08954 5.32514 8.9567 5.83594 9.18751C6.03122 9.33587 6.14841 9.5312 6.1875 9.77345C6.21877 11.211 6.21877 12.6484 6.1875 14.0859C6.0128 14.7944 5.59875 14.9897 4.94531 14.6719C4.3101 13.8648 3.69292 13.0445 3.09375 12.2109C3.07813 12.8359 3.0625 13.461 3.04688 14.0859C2.89442 14.7598 2.49599 14.9708 1.85156 14.7188C1.71405 14.6126 1.6125 14.4798 1.54688 14.3203C1.51562 12.7422 1.51562 11.1641 1.54688 9.58595C1.65995 9.33995 1.83964 9.16811 2.08594 9.07032ZM7.99219 9.07032C8.71111 9.0625 9.42984 9.07032 10.1484 9.09376C10.7488 9.31745 10.9129 9.71589 10.6406 10.2891C10.5298 10.447 10.3813 10.5486 10.1953 10.5938C9.77372 10.6172 9.35184 10.625 8.92969 10.6172C8.92969 10.8203 8.92969 11.0235 8.92969 11.2266C9.38658 11.2069 9.83972 11.2303 10.2891 11.2969C10.7776 11.5686 10.8948 11.9514 10.6406 12.4453C10.5345 12.5828 10.4017 12.6844 10.2422 12.75C9.80498 12.7734 9.36745 12.7812 8.92969 12.7734C8.92969 12.9453 8.92969 13.1172 8.92969 13.2891C9.33623 13.2813 9.7425 13.2891 10.1484 13.3125C10.7488 13.5362 10.9129 13.9346 10.6406 14.5078C10.5298 14.6657 10.3813 14.7673 10.1953 14.8125C9.44531 14.8438 8.69531 14.8438 7.94531 14.8125C7.67189 14.7266 7.49217 14.5469 7.40625 14.2734C7.37498 12.7266 7.37498 11.1797 7.40625 9.63282C7.50398 9.33967 7.69931 9.15217 7.99219 9.07032ZM19.9453 9.07032C20.4143 9.06254 20.8831 9.07032 21.3516 9.09376C21.9582 9.29917 22.1378 9.69761 21.8906 10.2891C21.7845 10.4266 21.6517 10.5281 21.4922 10.5938C21.0078 10.6094 20.5234 10.625 20.0391 10.6406C19.8162 10.7583 19.8006 10.8989 19.9922 11.0625C21.0011 10.9085 21.7902 11.2444 22.3594 12.0703C22.798 13.1209 22.5558 13.9725 21.6328 14.625C21.4242 14.731 21.2055 14.8091 20.9766 14.8594C20.3047 14.8907 19.6328 14.8907 18.9609 14.8594C18.4151 14.6762 18.2354 14.309 18.4219 13.7578C18.5106 13.591 18.6434 13.4739 18.8203 13.4063C19.489 13.3462 20.1609 13.3149 20.8359 13.3125C21.0099 13.1947 21.0646 13.0307 21 12.8203C20.9766 12.7344 20.9219 12.6797 20.8359 12.6563C20.4429 12.6483 20.0523 12.6171 19.6641 12.5625C18.5811 12.17 18.1671 11.4122 18.4219 10.2891C18.704 9.59218 19.2118 9.18596 19.9453 9.07032ZM12.4922 9.1172C12.9346 9.03742 13.2549 9.19365 13.4531 9.58595C13.5126 10.3022 13.5439 11.0209 13.5469 11.7422C13.7209 11.5114 13.9006 11.2848 14.0859 11.0625C14.3873 10.8633 14.6998 10.8477 15.0234 11.0156C15.221 11.2287 15.4006 11.4553 15.5625 11.6953C15.5781 11.0547 15.5938 10.4141 15.6094 9.77345C15.8019 9.15156 16.2004 8.97189 16.8047 9.23439C16.9422 9.34051 17.0438 9.47336 17.1094 9.63282C17.1406 11.1953 17.1406 12.7578 17.1094 14.3203C16.8725 14.8369 16.4897 14.9853 15.9609 14.7656C15.482 14.1774 15.0211 13.5759 14.5781 12.9609C14.1072 13.5668 13.6306 14.1684 13.1484 14.7656C12.6197 14.9853 12.2369 14.8369 12 14.3203C11.9687 12.7578 11.9687 11.1953 12 9.63282C12.1105 9.40525 12.2745 9.2334 12.4922 9.1172Z" fill="#64748B"/>
<path opacity="0.978" fill-rule="evenodd" clip-rule="evenodd" d="M2.41406 18.4922C6.07031 18.4922 9.72656 18.4922 13.3828 18.4922C13.5261 19.669 13.987 20.7002 14.7656 21.5859C15.1811 22.017 15.6108 22.4311 16.0547 22.8281C12.2828 24.1144 8.72034 23.6925 5.36719 21.5625C4.18037 20.7274 3.19599 19.704 2.41406 18.4922Z" fill="#64748B"/>
<path opacity="0.961" fill-rule="evenodd" clip-rule="evenodd" d="M14.9297 18.4922C17.1174 18.4766 19.3049 18.4922 21.4922 18.5391C20.4778 19.999 19.2044 21.1709 17.6719 22.0547C16.6366 21.4257 15.8241 20.5819 15.2344 19.5234C15.0898 19.1913 14.9882 18.8476 14.9297 18.4922Z" fill="#64748B"/>
</g>
<defs>
<clipPath id="clip0_4526_4430">
<rect width="24" height="24" fill="white"/>
</clipPath>
</defs>
</svg>
