<svg width="25px" height="25px" viewBox="0 0 24 24" fill="none" xmlns="http://www.w3.org/2000/svg">
    <path opacity="0.983" fill-rule="evenodd" clip-rule="evenodd"
        d="M4.66404 1.19531C7.71096 1.1875 10.7578 1.19531 13.8047 1.21875C14.1303 1.2801 14.4271 1.4051 14.6953 1.59375C16.25 3.14844 17.8047 4.70311 19.3594 6.25781C19.5623 6.53883 19.6873 6.8513 19.7344 7.19531C19.7578 9.07027 19.7656 10.9453 19.7578 12.8203C19.634 12.8561 19.509 12.8639 19.3828 12.8438C19.2312 12.4151 18.9968 12.0401 18.6797 11.7188C18.5187 11.6046 18.3469 11.5109 18.164 11.4375C17.1629 11.1709 16.1629 11.1865 15.164 11.4844C14.6105 11.7701 14.2512 12.2154 14.0859 12.8203C13.1185 12.6141 12.345 12.911 11.7656 13.7109C11.3554 14.2499 11.0429 14.8436 10.8281 15.4922C10.6492 16.2601 10.8445 16.9163 11.414 17.4609C11.1184 17.7863 10.9075 18.1613 10.7812 18.5859C10.7227 18.9748 10.7696 19.3498 10.9219 19.7109C11.2162 20.4801 11.6459 21.1598 12.2109 21.75C12.4458 21.9377 12.7114 22.0627 13.0078 22.125C13.3678 22.1395 13.7272 22.1395 14.0859 22.125C14.1874 22.3278 14.2655 22.5387 14.3203 22.7578C11.1015 22.7656 7.88276 22.7578 4.66404 22.7344C3.59217 22.5777 2.83435 22.0074 2.39061 21.0234C2.27616 20.7375 2.21366 20.4406 2.20311 20.1328C2.15704 14.5538 2.17266 8.97563 2.24998 3.39844C2.60196 2.16349 3.40664 1.42911 4.66404 1.19531ZM13.4765 2.60156C15.139 4.17802 16.7639 5.7952 18.3515 7.45313C17.0547 7.48439 15.7578 7.48439 14.4609 7.45313C13.9323 7.39317 13.612 7.10409 13.5 6.58594C13.4765 5.25792 13.4687 3.92978 13.4765 2.60156ZM5.92967 6.21094C7.46098 6.20311 8.99225 6.21094 10.5234 6.23438C11.139 6.41095 11.3187 6.79374 11.0625 7.38281C10.9716 7.50497 10.8544 7.59089 10.7109 7.64063C9.05468 7.67189 7.3984 7.67189 5.74217 7.64063C5.1245 7.2638 5.07762 6.82631 5.60154 6.32813C5.71892 6.29541 5.82828 6.25636 5.92967 6.21094ZM5.97654 9.72656C8.30473 9.71873 10.6328 9.72656 12.9609 9.75C13.604 9.87244 13.815 10.2396 13.5937 10.8516C13.4337 11.0604 13.2228 11.1776 12.9609 11.2031C10.6328 11.2344 8.30468 11.2344 5.97654 11.2031C5.33257 11.0789 5.12164 10.7116 5.34373 10.1016C5.51328 9.89606 5.72421 9.77109 5.97654 9.72656ZM5.83592 13.2422C7.08603 13.2344 8.336 13.2422 9.58592 13.2656C10.1481 13.4514 10.3122 13.8187 10.0781 14.3672C9.97198 14.5047 9.83914 14.6062 9.67967 14.6719C8.38278 14.7031 7.08593 14.7031 5.78904 14.6719C5.4476 14.5644 5.2601 14.3301 5.22654 13.9688C5.28284 13.5958 5.48595 13.3536 5.83592 13.2422ZM5.78904 16.7578C7.08603 16.75 8.38287 16.7578 9.67967 16.7812C10.2627 17.1129 10.3408 17.5348 9.91404 18.0469C9.81012 18.1066 9.70071 18.1535 9.58592 18.1875C8.3359 18.2188 7.08593 18.2188 5.83592 18.1875C5.26376 17.9692 5.11531 17.5864 5.3906 17.0391C5.49945 16.9034 5.63225 16.8096 5.78904 16.7578Z"
        fill="#66768D" />
    <path opacity="0.983" fill-rule="evenodd" clip-rule="evenodd"
        d="M16.1484 12.2109C16.5394 12.2031 16.93 12.2109 17.3203 12.2344C17.723 12.222 18.0433 12.3704 18.2812 12.6797C18.4012 12.9976 18.534 13.3101 18.6797 13.6172C18.789 13.6875 18.8985 13.7578 19.0078 13.8281C19.3601 13.8314 19.7116 13.808 20.0625 13.7578C20.4046 13.7492 20.6702 13.8898 20.8594 14.1797C21.2947 14.73 21.5994 15.3472 21.7734 16.0312C21.7525 16.1698 21.7134 16.3026 21.6562 16.4297C21.4531 16.6953 21.25 16.9609 21.0469 17.2265C21.0156 17.3984 21.0156 17.5703 21.0469 17.7422C21.2231 17.9851 21.4106 18.2195 21.6094 18.4453C21.8045 18.7489 21.8201 19.0614 21.6562 19.3828C21.4028 20.0727 21.0043 20.6586 20.4609 21.1406C20.0138 21.209 19.5685 21.1855 19.125 21.0703C18.9967 21.1462 18.8638 21.2165 18.7266 21.2812C18.554 21.6264 18.3899 21.9779 18.2344 22.3359C18.0633 22.5582 17.8368 22.6754 17.5547 22.6875C16.8757 22.7974 16.2038 22.7661 15.5391 22.5937C15.378 22.5419 15.2608 22.4404 15.1875 22.289C15.0501 21.9785 14.9173 21.666 14.7891 21.3515C14.6722 21.254 14.5472 21.1681 14.4141 21.0937C14.0638 21.1191 13.7122 21.1582 13.3594 21.2109C13.2008 21.2101 13.0523 21.1711 12.9141 21.0937C12.364 20.5425 11.9655 19.8941 11.7188 19.1484C11.6828 18.9565 11.6984 18.769 11.7656 18.5859C11.9958 18.2974 12.2145 18.0005 12.4219 17.6953C12.4531 17.5391 12.4531 17.3828 12.4219 17.2265C12.2456 16.9836 12.0581 16.7492 11.8594 16.5234C11.7622 16.3648 11.7075 16.193 11.6953 16.0078C11.8704 15.2669 12.2063 14.6107 12.7031 14.039C12.8808 13.8313 13.1074 13.7375 13.3828 13.7578C13.7415 13.8086 14.1008 13.832 14.4609 13.8281C14.547 13.7616 14.6407 13.7069 14.7422 13.664C14.9055 13.3061 15.0695 12.9467 15.2344 12.5859C15.3252 12.4638 15.4424 12.3778 15.5859 12.3281C15.7812 12.2951 15.9687 12.256 16.1484 12.2109ZM16.5703 16.2422C17.5455 16.3031 17.9908 16.8187 17.9062 17.789C17.7134 18.3467 17.3228 18.6592 16.7344 18.7265C15.802 18.5645 15.4114 18.0177 15.5625 17.0859C15.7651 16.6408 16.101 16.3596 16.5703 16.2422Z"
        fill="#66768D" />
</svg>