<?xml version="1.0" encoding="utf-8"?>

<!DOCTYPE svg PUBLIC "-//W3C//DTD SVG 1.1//EN" "http://www.w3.org/Graphics/SVG/1.1/DTD/svg11.dtd">
<!-- Uploaded to: SVG Repo, www.svgrepo.com, Generator: SVG Repo Mixer Tools -->
<svg width="57" height="64" version="1.1" id="_x32_" xmlns="http://www.w3.org/2000/svg" xmlns:xlink="http://www.w3.org/1999/xlink" 
	 viewBox="0 0 512 512"  xml:space="preserve">

<g>
	<rect fill="#d17400" x="129.073" y="459.447" class="st0" width="76.927" height="10.702"/>
	<rect fill="#d17400" x="305.999" y="459.447" class="st0" width="76.927" height="10.702"/>
	<path fill="#d17400" stroke-width="8" stroke="#d17400" stroke-linecap="round" class="st0" d="M438.085,417.185c-4.714-10.228-11.416-18.46-19.046-25.014c-15.288-13.11-34.074-19.726-49.963-24.323
		c-10.581-3.036-20.013-5.188-25.88-7.27c-2.679-0.932-5.017-1.258-6.962-1.646c-0.47-0.085-0.812-0.186-1.231-0.272l-3.906-17.714
		c-1.829-8.224-8.399-14.368-16.46-15.828c0-3.758,0-7.913,0-12.48c9.603-10.686,23.41-27.244,29.084-53.5
		c1.973-0.901,3.929-1.903,5.824-3.223c3.11-2.151,5.957-4.978,8.465-8.504c5.032-7.09,8.912-16.76,13.21-31.732
		c1.619-5.692,2.376-10.647,2.376-15.051c0.016-5.086-1.044-9.506-2.962-13.078c-0.497-0.939-1.165-1.623-1.751-2.423v-9.879h23.244
		v-43.132h-14.503c-4.496-53.104-42.776-96.407-93.364-108.414V18.74c0-10.352-8.387-18.732-18.736-18.74h-9.521h-9.514
		c-10.36,0.008-18.736,8.388-18.736,18.74v4.962c-50.588,12.006-88.878,55.31-93.375,108.414H119.89v43.132h23.244v9.879
		c-0.602,0.8-1.27,1.484-1.767,2.423c-1.918,3.572-2.963,7.991-2.963,13.078c0.012,4.404,0.757,9.358,2.388,15.051
		c4.287,14.973,8.166,24.642,13.199,31.732c2.508,3.526,5.366,6.352,8.476,8.504c1.883,1.32,3.84,2.322,5.828,3.223
		c5.669,26.256,19.466,42.814,29.068,53.5c0,4.566,0,8.722,0,12.48c-8.05,1.46-14.631,7.604-16.448,15.828l-3.918,17.714
		c-0.408,0.086-0.761,0.187-1.216,0.272c-1.961,0.388-4.298,0.714-6.978,1.646c-5.852,2.081-15.299,4.233-25.868,7.27
		c-15.902,4.597-34.688,11.214-49.975,24.323c-7.63,6.554-14.332,14.787-19.035,25.014c-4.729,10.22-7.42,22.366-7.42,36.578
		c0,3.3,0.144,6.717,0.443,10.252c0.225,2.469,1.165,4.48,2.26,6.134c2.104,3.083,4.9,5.39,8.391,7.743
		c6.112,4.053,14.593,8.014,25.449,11.898c32.494,11.587,86.293,22.195,152.953,22.21c66.656-0.015,120.455-10.624,152.948-22.21
		c10.858-3.883,19.338-7.844,25.45-11.898c3.503-2.353,6.287-4.66,8.403-7.743c1.099-1.654,2.038-3.665,2.248-6.134
		c0.299-3.534,0.443-6.952,0.443-10.252C445.505,439.551,442.803,427.404,438.085,417.185z M316.725,344.122l5.592,25.333
		l13.249,59.915l-52.429-6.928l-19.858,21.333l0.078-15.741h-0.524l48.002-59.791l-0.039-1.941c0-0.016-0.093-4.186-0.171-9.483
		c-0.078-5.289-0.171-11.696-0.171-16.06c0-0.45,0-0.854,0.016-1.273h0.482C313.719,339.486,316.123,341.419,316.725,344.122z
		 M232.432,37.712v17.924h10.034V35.678V18.74c0-2.213,1.802-4.015,4.023-4.023h9.514h9.521c2.209,0.008,4.011,1.81,4.027,4.023
		v16.938v19.958h10.034V37.712c46.169,10.36,81.082,50.379,83.629,99.08h-107.21H148.787
		C151.351,88.091,186.247,48.072,232.432,37.712z M134.599,160.54v-13.714h6.64h7.156h107.606h107.602h7.172h6.636v13.714h-20.133
		h-5.409h-95.868h-95.86h-5.42H134.599z M181.855,252.521l-0.746-4.216l-4.023-1.437c-2.559-0.916-4.52-1.848-6.216-3.029
		c-2.524-1.778-4.796-4.201-7.463-9.164c-2.625-4.939-5.421-12.325-8.466-23.034c-1.343-4.675-1.817-8.309-1.817-11.012
		c0-3.145,0.602-4.985,1.215-6.134c0.928-1.693,2.066-2.408,3.514-2.99c1.165-0.443,2.392-0.559,2.878-0.583l7.862,0.971v-8.333
		c0,0,0-2.547,0-8.31h87.407h87.403c0,5.763,0,8.31,0,8.31v8.333l7.863-0.971c0.497,0.024,1.713,0.14,2.877,0.583
		c1.449,0.582,2.586,1.297,3.514,2.99c0.614,1.149,1.216,2.989,1.227,6.134c0,2.703-0.485,6.337-1.817,11.012
		c-3.056,10.71-5.84,18.095-8.464,23.034c-2.664,4.962-4.951,7.385-7.46,9.164c-1.713,1.181-3.658,2.113-6.221,3.029l-4.023,1.437
		l-0.746,4.216c-4.718,26.358-18.304,41.199-28.338,52.375l-1.895,2.096v2.827c0,8.31,0,15.222,0,21.139v0.117v0.116l0.039,0.94
		h-0.167c0,3.556-0.039,5.607-0.039,8.628c0,7.121,0.206,19.151,0.299,23.803l-14.488,18.041c-8.142,4.643-18.359,7.51-29.565,7.502
		c-11.199,0.008-21.415-2.858-29.569-7.502l-14.476-18.041c0.082-4.652,0.287-16.682,0.287-23.803c0-3.02-0.039-5.072-0.039-8.628
		h-0.155l0.027-0.94v-0.116v-0.117c0-5.917,0-12.83,0-21.139v-2.827l-1.883-2.096C200.16,293.72,186.562,278.879,181.855,252.521z
		 M189.684,369.454l5.603-25.333c0.59-2.703,3.005-4.636,5.774-4.636h0.485c0,0.419,0,0.823,0,1.273
		c0,4.365-0.078,10.772-0.171,16.06c-0.078,5.296-0.155,9.467-0.155,9.483l-0.039,1.941l47.986,59.791h-0.509l0.062,15.741
		l-19.842-21.333l-52.444,6.928L189.684,369.454z M430.416,462.142c-0.195,0.272-0.587,0.73-1.282,1.336
		c-1.63,1.452-4.581,3.409-8.592,5.467c-8.038,4.147-20.293,8.776-35.88,12.993c-31.196,8.449-75.788,15.353-128.66,15.353
		c-52.864,0-97.453-6.904-128.652-15.353c-15.587-4.217-27.842-8.846-35.891-12.993c-4.011-2.058-6.962-4.015-8.582-5.467
		c-0.707-0.606-1.099-1.064-1.293-1.336c-0.221-2.896-0.353-5.708-0.353-8.38c0.027-16.511,4.061-28.572,10.294-38.03
		c9.342-14.134,24.327-22.786,39.98-28.68c7.8-2.943,15.679-5.179,22.917-7.113c7.172-1.934,13.653-3.526,19.073-5.42
		l-15.967,72.185l65.744-8.674l32.73,35.157l32.738-35.157l65.732,8.674l-15.956-72.185c5.424,1.894,11.906,3.486,19.062,5.42
		c7.238,1.934,15.132,4.17,22.93,7.113c15.652,5.894,30.636,14.546,39.968,28.68c6.243,9.459,10.282,21.52,10.306,38.03
		C430.781,456.434,430.652,459.246,430.416,462.142z"/>
	<polygon fill="#d17400" stroke-width="1.8" stroke="#d17400" stroke-linecap="round" class="st0" points="264.7,124.754 264.7,104.47 284.993,104.47 284.993,87.074 264.7,87.074 264.7,66.788 247.311,66.788 
		247.311,87.074 227.023,87.074 227.023,104.47 247.311,104.47 247.311,124.754 	"/>
</g>
</svg>