<?xml version="1.0" encoding="utf-8"?>
<!-- Uploaded to: SVG Repo, www.svgrepo.com, Generator: SVG Repo Mixer Tools -->
<svg width="57" height="64" viewBox="0 -6 1036 1036" fill="#000000" class="icon"  version="1.1" xmlns="http://www.w3.org/2000/svg">
<path fill="#d17400" stroke-width="1" stroke="#d17400" stroke-linecap="round" d="M719.426083 455.245822h234.197458v73.724278H719.426083zM960.258726 580.454221v68.686453h-87.609017v-99.527776h-73.724279v100.387893a203.479008 203.479008 0 0 0-187.505414 202.618891h92.523969a110.586418 110.586418 0 0 1 110.586418-110.586417h145.482576v82.694065h73.724278V580.454221h-73.724278zM610.682773 973.527499a48.043655 48.043655 0 1 0 95.964435 0c0-26.54074-48.043655-104.934223-48.043654-104.934223s-47.920781 78.516356-47.920781 104.934223zM130.000478 762.92181h79.867968v45.094684h-79.867968zM130.000478 688.82891h79.867968v45.094684h-79.867968zM130.000478 837.137584h79.867968v45.094683h-79.867968zM902.016546 252.504056L679.123478 10.442675A35.633401 35.633401 0 0 0 650.985378 0.121276h-15.359224L138.724517 275.112835 45.340431 381.030048a28.629595 28.629595 0 0 0 0 40.548353 32.561556 32.561556 0 0 0 12.28738 7.74105V528.478605a81.711075 81.711075 0 1 0 112.429525 75.813133h-61.436899a20.274177 20.274177 0 1 1-20.274177-20.39705h30.71845V434.725898l98.299037 9.092661h140.936246v29.735459a53.204354 53.204354 0 0 0 50.501131 50.50113h57.873558v376.362441h-127.788749V491.616466h-147.448557v73.724278h73.724279v362.477702H73.724278V745.10511H0V1001.542725h578.735585a84.291425 84.291425 0 0 1-4.792078-27.892352c0-18.676817 11.304389-46.692043 24.57476-73.724279h-56.521947v-65.614607h33.298799a237.023555 237.023555 0 0 1 18.553943-75.567386h-51.852742V688.214541h71.266802v35.019033a243.412993 243.412993 0 0 1 69.177948-70.160939V417.892187h226.947904a33.544547 33.544547 0 0 0 2.58035-12.287379V280.273534a35.387654 35.387654 0 0 0-9.952778-27.769478zM190.085764 376.975213h-58.856548l58.856548-58.856549v58.856549z m129.631857 0h-71.143929v-58.856549h71.143929v58.856549z m-8.232545-128.034497L556.372554 116.851384l-78.270609 132.089332H311.485076z m77.533366 124.962652v-55.784704h64.508744z m224.24468 244.887478h-71.266802v-88.34626h71.266802v88.34626z m0-167.722733H446.400506v-40.056858l80.850958-73.724279h86.011658v113.412515z m0-202.250271h-49.149518l49.149518-78.516356v78.516356z m114.764127 128.034497h-39.196741v-58.856549h39.196741v58.856549z m-45.586179-128.034497V126.681288l112.675273 122.136554h-112.675273z m160.350306 128.034497h-45.217558v-58.856549h45.586179v58.856549z" /></svg>