<svg width="18" height="18" viewBox="0 0 18 18" fill="none" xmlns="http://www.w3.org/2000/svg">
<path d="M5.22416 3.11809L5.74449 2.26412V2.26412L5.22416 3.11809ZM7.51078 2.17094L6.53901 1.93503L7.51078 2.17094ZM3.11809 5.22416L2.26412 5.74449L3.11809 5.22416ZM2.17094 7.51078L1.93503 6.53901L2.17094 7.51078ZM2.17094 10.4892L2.40686 9.51745H2.40686L2.17094 10.4892ZM3.11809 12.7758L2.26412 12.2555L3.11809 12.7758ZM5.22417 14.8819L5.7445 15.7359V15.7359L5.22417 14.8819ZM7.51078 15.8291L8.48255 15.5931L7.51078 15.8291ZM10.4892 15.8291L11.461 16.065L10.4892 15.8291ZM12.7758 14.8819L12.2555 15.7359V15.7359L12.7758 14.8819ZM14.8819 12.7758L15.7359 12.2555H15.7359L14.8819 12.7758ZM15.8291 10.4892L16.065 11.461L15.8291 10.4892ZM15.8291 7.51078L15.5931 8.48255L15.8291 7.51078ZM14.8819 5.22416L15.7359 5.74449H15.7359L14.8819 5.22416ZM12.7758 3.11809L12.2555 2.26412V2.26412L12.7758 3.11809ZM10.4892 2.17094L9.51745 2.40686V2.40686L10.4892 2.17094ZM4.70383 3.97205C6.16845 4.86446 8.07794 4.07353 8.48255 2.40686L6.53901 1.93503C6.45393 2.28546 6.05244 2.45176 5.74449 2.26412L4.70383 3.97205ZM3.97205 4.70383C3.68159 4.22712 4.22712 3.68159 4.70383 3.97205L5.74449 2.26412C3.47724 0.882659 0.88266 3.47724 2.26412 5.74449L3.97205 4.70383ZM2.40686 8.48255C4.07353 8.07794 4.86446 6.16845 3.97205 4.70383L2.26412 5.74449C2.45176 6.05244 2.28546 6.45393 1.93503 6.53901L2.40686 8.48255ZM2.40686 9.51745C1.86438 9.38575 1.86438 8.61425 2.40686 8.48255L1.93503 6.53901C-0.645011 7.16536 -0.645006 10.8346 1.93503 11.461L2.40686 9.51745ZM3.97205 13.2962C4.86446 11.8315 4.07353 9.92206 2.40686 9.51745L1.93503 11.461C2.28546 11.5461 2.45176 11.9476 2.26412 12.2555L3.97205 13.2962ZM4.70384 14.0279C4.22712 14.3184 3.68159 13.7729 3.97205 13.2962L2.26412 12.2555C0.88266 14.5228 3.47724 17.1173 5.7445 15.7359L4.70384 14.0279ZM8.48255 15.5931C8.07794 13.9265 6.16846 13.1355 4.70384 14.0279L5.7445 15.7359C6.05244 15.5482 6.45393 15.7145 6.53901 16.065L8.48255 15.5931ZM9.51745 15.5931C9.38575 16.1356 8.61425 16.1356 8.48255 15.5931L6.53901 16.065C7.16536 18.645 10.8346 18.645 11.461 16.065L9.51745 15.5931ZM13.2962 14.0279C11.8315 13.1355 9.92206 13.9265 9.51745 15.5931L11.461 16.065C11.5461 15.7145 11.9476 15.5482 12.2555 15.7359L13.2962 14.0279ZM14.0279 13.2962C14.3184 13.7729 13.7729 14.3184 13.2962 14.0279L12.2555 15.7359C14.5228 17.1173 17.1173 14.5228 15.7359 12.2555L14.0279 13.2962ZM15.5931 9.51745C13.9265 9.92206 13.1355 11.8315 14.0279 13.2962L15.7359 12.2555C15.5482 11.9476 15.7145 11.5461 16.065 11.461L15.5931 9.51745ZM15.5931 8.48255C16.1356 8.61425 16.1356 9.38575 15.5931 9.51745L16.065 11.461C18.645 10.8346 18.645 7.16536 16.065 6.53901L15.5931 8.48255ZM14.0279 4.70383C13.1355 6.16845 13.9265 8.07794 15.5931 8.48255L16.065 6.53901C15.7145 6.45393 15.5482 6.05244 15.7359 5.74449L14.0279 4.70383ZM13.2962 3.97205C13.7729 3.68159 14.3184 4.22712 14.0279 4.70383L15.7359 5.74449C17.1173 3.47724 14.5228 0.88266 12.2555 2.26412L13.2962 3.97205ZM9.51745 2.40686C9.92206 4.07353 11.8315 4.86446 13.2962 3.97205L12.2555 2.26412C11.9476 2.45176 11.5461 2.28546 11.461 1.93503L9.51745 2.40686ZM11.461 1.93503C10.8346 -0.645006 7.16536 -0.645011 6.53901 1.93503L8.48255 2.40686C8.61425 1.86438 9.38575 1.86438 9.51745 2.40686L11.461 1.93503ZM10.6667 9C10.6667 9.92048 9.92048 10.6667 9 10.6667V12.6667C11.025 12.6667 12.6667 11.025 12.6667 9H10.6667ZM9 10.6667C8.07953 10.6667 7.33333 9.92048 7.33333 9H5.33333C5.33333 11.025 6.97496 12.6667 9 12.6667V10.6667ZM7.33333 9C7.33333 8.07953 8.07953 7.33333 9 7.33333V5.33333C6.97496 5.33333 5.33333 6.97496 5.33333 9H7.33333ZM9 7.33333C9.92048 7.33333 10.6667 8.07953 10.6667 9H12.6667C12.6667 6.97496 11.025 5.33333 9 5.33333V7.33333Z" fill="#64748B"/>
</svg>
